{"title":"Non-Stop (2014) HDCAM x264 AC3 - TiTAN","uid":9687315,"size":1422093175,"categoryP":"video","categoryS":"movies","magnet":"?xt=urn:btih:ac5f4d0ca23c60fbf9a6c3e3f1335269b8c2631e&amp;dn=Non-Stop+%282014%29+HDCAM+x264+AC3+-+TiTAN&amp;tr=udp%3A%2F%2Ftracker.openbittorrent.com%3A80&amp;tr=udp%3A%2F%2Fopen.demonii.com%3A1337&amp;tr=udp%3A%2F%2Ftracker.coppersurfer.tk%3A6969&amp;tr=udp%3A%2F%2Fexodus.desync.com%3A6969","seeders":8,"leechers":0,"uploader":"tykoon123","files":-1,"time":1393795725,"description":" &lt;a href=&quot;http://www.imageurlhost.com/images/e44yktuwqc7ojfv9fwn.jpg&quot; rel=&quot;nofollow&quot; target=&quot;_NEW&quot;&gt;http://www.imageurlhost.com/images/e44yktuwqc7ojfv9fwn.jpg&lt;/a&gt;\n\nInfo:\n\nGeneral\n\nSource VOBS AmStErDaM - THX\n\n\nTook my time to crop, re-size, change frame rate, and run thru some nice filters.. came out to be a damn nice first cam.. does have some Latino HC subs but there pretty small.. so take it or leave it.\n\n\nFormat : Matroska\nFormat version : Version 2\nFile size : 1.32 GiB\nDuration : 1h 39mn\nOverall bit rate : 1 898 Kbps\nWriting application : HandBrake 0.9.9\nWriting library : libmkv 0.6.5\n\nVideo\nID : 1\nFormat : AVC\nFormat/Info : Advanced Video Codec\nFormat profile : &lt;a class=&quot;__cf_email__&quot; href=&quot;/cdn-cgi/l/email-protection&quot; data-cfemail=&quot;591438303719156d7768&quot;&gt;[email&amp;#160;protected]&lt;/a&gt;&lt;script cf-hash='f9e31' type=&quot;text/javascript&quot;&gt;\n/* &lt;![CDATA[ */!function(){try{var t=&quot;currentScript&quot;in document?document.currentScript:function(){for(var t=document.getElementsByTagName(&quot;script&quot;),e=t.length;e--;)if(t[e].getAttribute(&quot;cf-hash&quot;))return t[e]}();if(t&amp;&amp;t.previousSibling){var e,r,n,i,c=t.previousSibling,a=c.getAttribute(&quot;data-cfemail&quot;);if(a){for(e=&quot;&quot;,r=parseInt(a.substr(0,2),16),n=2;a.length-n;n+=2)i=parseInt(a.substr(n,2),16)^r,e+=String.fromCharCode(i);e=document.createTextNode(e),c.parentNode.replaceChild(e,c)}}}catch(u){}}();/* ]]&gt; */&lt;/script&gt;\nFormat settings, CABAC : Yes\nFormat settings, ReFrames : 4 frames\nCodec ID : V_MPEG4/ISO/AVC\nDuration : 1h 39mn\nBit rate : 1 700 Kbps\nWidth : 720 pixels\nHeight : 384 pixels\nDisplay aspect ratio : 1.85:1\nFrame rate mode : Constant\nFrame rate : 25.000 fps\nColor space : YUV\nChroma subsampling : 4:2:0\nBit depth : 8 bits\nScan type : Progressive\nBits/(Pixel*Frame) : 0.246\nStream size : 1.16 GiB (88%)\nWriting library : x264 core 130 r2273 b3065e6\nLanguage : English\nDefault : Yes\nForced : No\nColor primaries : BT.709\nTransfer characteristics : BT.709\nMatrix coefficients : BT.709\n\nAudio\nID : 2\nFormat : AC-3\nFormat/Info : Audio Coding 3\nMode extension : CM (complete main)\nFormat settings, Endianness : Big\nCodec ID : A_AC3\nDuration : 1h 39mn\nBit rate mode : Constant\nBit rate : 192 Kbps\nChannel(s) : 2 channels\nChannel positions : Front: L R\nSampling rate : 48.0 KHz\nBit depth : 16 bits\nCompression mode : Lossy\nStream size : 137 MiB (10%)\nDefault : Yes\nForced : No\n\nScreens: &lt;a href=&quot;\nhttp://www.imageurlhost.com/images/0lnmpua7mlsq3vt4i093.png&quot; rel=&quot;nofollow&quot; target=&quot;_NEW&quot;&gt;\nhttp://www.imageurlhost.com/images/0lnmpua7mlsq3vt4i093.png&lt;/a&gt; &lt;a href=&quot;\nhttp://www.imageurlhost.com/images/ax209iszuh367e1ivn.png&quot; rel=&quot;nofollow&quot; target=&quot;_NEW&quot;&gt;\nhttp://www.imageurlhost.com/images/ax209iszuh367e1ivn.png&lt;/a&gt; &lt;a href=&quot;\nhttp://www.imageurlhost.com/images/pdtr6flx7rgdz7kurjz.png&quot; rel=&quot;nofollow&quot; target=&quot;_NEW&quot;&gt;\nhttp://www.imageurlhost.com/images/pdtr6flx7rgdz7kurjz.png&lt;/a&gt; &lt;a href=&quot;\nhttp://www.imageurlhost.com/images/3vu5du5sam8mtzdq3la.png&quot; rel=&quot;nofollow&quot; target=&quot;_NEW&quot;&gt;\nhttp://www.imageurlhost.com/images/3vu5du5sam8mtzdq3la.png&lt;/a&gt; &lt;a href=&quot;\nhttp://www.imageurlhost.com/images/b2bhj4ow25wl6bd119.png&quot; rel=&quot;nofollow&quot; target=&quot;_NEW&quot;&gt;\nhttp://www.imageurlhost.com/images/b2bhj4ow25wl6bd119.png&lt;/a&gt; &lt;a href=&quot;\nhttp://www.imageurlhost.com/images/5ob294wh6je2vb1ih7v.png&quot; rel=&quot;nofollow&quot; target=&quot;_NEW&quot;&gt;\nhttp://www.imageurlhost.com/images/5ob294wh6je2vb1ih7v.png&lt;/a&gt;\n\n\n\n\n\n","torrent":{"xt":"urn:btih:ac5f4d0ca23c60fbf9a6c3e3f1335269b8c2631e","amp;dn":"Non-Stop+%282014%29+HDCAM+x264+AC3+-+TiTAN","amp;tr":["udp%3A%2F%2Ftracker.openbittorrent.com%3A80","udp%3A%2F%2Fopen.demonii.com%3A1337","udp%3A%2F%2Ftracker.coppersurfer.tk%3A6969","udp%3A%2F%2Fexodus.desync.com%3A6969"],"infoHash":"ac5f4d0ca23c60fbf9a6c3e3f1335269b8c2631e","infoHashBuffer":{"type":"Buffer","data":[172,95,77,12,162,60,96,251,249,166,195,227,241,51,82,105,184,194,99,30]},"announce":[],"urlList":[]}}